<svg width="89" height="24" viewBox="0 0 89 24" fill="none" xmlns="http://www.w3.org/2000/svg">
<path d="M6.83984 16.7539H4.03906V23H0.523438V5.9375L6.875 0C8.89062 0 10.4336 6.38672 11.5273 7.28516C12.6211 8.18359 13.168 9.45312 13.168 11.0938C13.168 12.2578 12.9141 13.2305 12.4062 14.0117C11.9062 14.7852 11.1445 15.4023 10.1211 15.8633L13.8125 22.8359V23H10.0391L6.83984 16.7539ZM4.03906 13.9062H6.875C7.75781 13.9062 8.44141 13.6836 8.92578 13.2383C9.41016 12.7852 9.65234 12.1641 9.65234 11.375C9.65234 10.5703 9.42188 9.9375 8.96094 9.47656C8.50781 9.01562 7.80859 8.78516 6.86328 8.78516H4.03906V13.9062Z" fill="black"/>
<path d="M19.2031 23H15.8047V10.3203H19.2031V23ZM15.6055 7.03906C15.6055 6.53125 15.7734 6.11328 16.1094 5.78516C16.4531 5.45703 16.918 5.29297 17.5039 5.29297C18.082 5.29297 18.543 5.45703 18.8867 5.78516C19.2305 6.11328 19.4023 6.53125 19.4023 7.03906C19.4023 7.55469 19.2266 7.97656 18.875 8.30469C18.5312 8.63281 18.0742 8.79688 17.5039 8.79688C16.9336 8.79688 16.4727 8.63281 16.1211 8.30469C15.7773 7.97656 15.6055 7.55469 15.6055 7.03906Z" fill="black"/>
<path d="M27.2773 20.5039C27.9023 20.5039 28.4102 20.332 28.8008 19.9883C29.1914 19.6445 29.3945 19.1875 29.4102 18.6172H32.5859C32.5781 19.4766 32.3438 20.2656 31.8828 20.9844C31.4219 21.6953 30.7891 22.25 29.9844 22.6484C29.1875 23.0391 28.3047 23.2344 27.3359 23.2344C25.5234 23.2344 24.0938 22.6602 23.0469 21.5117C22 20.3555 21.4766 18.7617 21.4766 16.7305V16.5078C21.4766 14.5547 21.9961 12.9961 23.0352 11.832C24.0742 10.668 25.5 10.0859 27.3125 10.0859C28.8984 10.0859 30.168 10.5391 31.1211 11.4453C32.082 12.3438 32.5703 13.543 32.5859 15.043H29.4102C29.3945 14.3867 29.1914 13.8555 28.8008 13.4492C28.4102 13.0352 27.8945 12.8281 27.2539 12.8281C26.4648 12.8281 25.8672 13.1172 25.4609 13.6953C25.0625 14.2656 24.8633 15.1953 24.8633 16.4844V16.8359C24.8633 18.1406 25.0625 19.0781 25.4609 19.6484C25.8594 20.2188 26.4648 20.5039 27.2773 20.5039Z" fill="black"/>
<path d="M37.8242 11.7031C38.7227 10.625 39.8516 10.0859 41.2109 10.0859C43.9609 10.0859 45.3555 11.6836 45.3945 14.8789V23H42.0078V14.9727C42.0078 14.2461 41.8516 13.7109 41.5391 13.3672C41.2266 13.0156 40.707 12.8398 39.9805 12.8398C38.9883 12.8398 38.2695 13.2227 37.8242 13.9883V23H34.4375V5H37.8242V11.7031Z" fill="black"/>
<path d="M51.6875 16.9883V23H48.1719V5.9375H54.8281C56.1094 5.9375 60.2695 2.53125 61.2383 3C62.2148 3.46875 59.9297 7.77734 60.4531 8.64453C60.9766 9.50391 61.2383 10.4844 61.2383 11.5859C61.2383 13.2578 60.6641 14.5781 59.5156 15.5469C58.375 16.5078 56.793 16.9883 54.7695 16.9883H51.6875ZM51.6875 14.1406H54.8281C55.7578 14.1406 56.4648 13.9219 56.9492 13.4844C57.4414 13.0469 57.6875 12.4219 57.6875 11.6094C57.6875 10.7734 57.4414 10.0977 56.9492 9.58203C56.457 9.06641 55.7773 8.80078 54.9102 8.78516H51.6875V14.1406Z" fill="black"/>
<path d="M71.0352 21.7109C70.1992 22.7266 69.043 23.2344 67.5664 23.2344C66.207 23.2344 65.168 22.8438 64.4492 22.0625C63.7383 21.2812 63.375 20.1367 63.3594 18.6289V10.3203H66.7461V18.5117C66.7461 19.832 67.3477 20.4922 68.5508 20.4922C69.6992 20.4922 70.4883 20.0938 70.918 19.2969V10.3203H74.3164V23H71.1289L71.0352 21.7109Z" fill="black"/>
<path d="M88.2969 16.7773C88.2969 18.8086 87.8633 20.3945 86.9961 21.5352C86.1289 22.668 84.918 23.2344 83.3633 23.2344C81.9883 23.2344 80.8906 22.707 80.0703 21.6523L79.918 23H76.8711V5H80.2578V11.457C81.0391 10.543 82.0664 10.0859 83.3398 10.0859C84.8867 10.0859 86.0977 10.6562 86.9727 11.7969C87.8555 12.9297 88.2969 14.5273 88.2969 16.5898V16.7773ZM84.9102 16.5312C84.9102 15.25 84.707 14.3164 84.3008 13.7305C83.8945 13.1367 83.2891 12.8398 82.4844 12.8398C81.4062 12.8398 80.6641 13.2812 80.2578 14.1641V19.168C80.6719 20.0586 81.4219 20.5039 82.5078 20.5039C83.6016 20.5039 84.3203 19.9648 84.6641 18.8867C84.8281 18.3711 84.9102 17.5859 84.9102 16.5312Z" fill="black"/>
</svg>
